<svg xmlns="http://www.w3.org/2000/svg" width="20" height="20" viewBox="0 0 20 20" fill="none">
  <mask id="mask0_13_3195" style="mask-type:alpha" maskUnits="userSpaceOnUse" x="0" y="0" width="20" height="20">
    <rect width="20" height="20" fill="#D9D9D9"/>
  </mask>
  <g mask="url(#mask0_13_3195)">
    <path d="M15.8894 16.6472L10.9263 11.6839C10.5096 12.0001 10.0527 12.245 9.55563 12.4186C9.05855 12.5923 8.54556 12.6791 8.01667 12.6791C6.71695 12.6791 5.61202 12.2241 4.70188 11.3143C3.79174 10.4044 3.33667 9.29997 3.33667 8.00094C3.33667 6.70205 3.7916 5.59719 4.70146 4.68635C5.61132 3.77566 6.71577 3.32031 8.01479 3.32031C9.31368 3.32031 10.4185 3.77538 11.3294 4.68552C12.2401 5.59566 12.6954 6.70059 12.6954 8.00031C12.6954 8.54517 12.606 9.06615 12.4271 9.56323C12.2481 10.0605 12.0058 10.5093 11.7002 10.9099L16.6633 15.873L15.8894 16.6472ZM8.01604 11.5959C9.02035 11.5959 9.87077 11.2476 10.5673 10.5509C11.264 9.85441 11.6123 9.00399 11.6123 7.99969C11.6123 6.99538 11.264 6.14496 10.5673 5.44844C9.87077 4.75177 9.02035 4.40344 8.01604 4.40344C7.01174 4.40344 6.16132 4.75177 5.46479 5.44844C4.76813 6.14496 4.41979 6.99538 4.41979 7.99969C4.41979 9.00399 4.76813 9.85441 5.46479 10.5509C6.16132 11.2476 7.01174 11.5959 8.01604 11.5959Z" fill="#8B96A2"/>
  </g>
</svg>