<svg width="24" height="28" viewBox="0 0 24 28" fill="none" xmlns="http://www.w3.org/2000/svg">
<path d="M19.927 11.3105C17.2621 11.5886 14.2101 14.1086 13.7647 17.755C13.6049 17.7512 13.4358 17.7471 13.2533 17.7449C13.5294 15.0332 15.0953 13.4499 16.0474 11.7958C17.0929 9.97675 15.9628 8.66693 15.4245 8.07071C15.2066 7.82711 15.0153 7.91353 15.0686 8.25587C15.647 11.7534 12.8263 12.9605 12.8263 16.6833C12.8263 16.8846 12.595 16.8846 12.5505 16.7136C12.11 14.9083 12.243 13.4155 12.5505 12.3336C12.822 11.3689 12.288 11.2963 11.5894 11.4552C10.971 11.5963 10.1568 11.6833 9.38725 11.5397C8.19048 11.3142 8.50632 10.7723 8.67094 10.559C8.65757 10.2607 8.67546 9.89219 8.74159 9.6219C8.77321 9.47891 8.93333 9.44868 8.97344 9.60809C9.05747 9.93215 9.28929 10.3191 9.44054 10.3311C9.92553 10.3757 10.2949 10.3049 10.5974 9.83154C10.8465 9.44868 10.9534 8.6268 10.7887 8.31245C10.5972 7.94379 9.33826 7.81106 9.20924 7.98615C9.08908 8.13922 8.99963 8.48156 8.93332 8.76791C8.89338 8.9389 8.71991 8.92284 8.67094 8.76791C8.56848 8.42314 8.47941 8.05877 8.44851 7.81293C8.19047 7.6313 8.09687 7.31918 8.19047 7.22044C8.34172 7.05132 8.76437 7.16016 8.83503 6.97685C8.9111 6.78757 8.72878 6.53145 8.40786 6.37839C8.31443 6.33377 8.32835 6.24156 8.43496 6.18089C8.71541 6.02783 9.3155 5.88298 9.70309 5.88298C11.0824 4.97429 12.6346 4.85948 14.5214 6.03791C15.2912 6.52138 15.8338 4.69446 14.2274 5.3995C14.1161 5.44766 14.0048 5.32671 14.1477 5.22797C15.3313 4.40215 16.1809 5.22797 15.6604 6.39035C15.5046 6.73699 15.5892 6.84992 15.825 7.08941C16.181 7.45024 16.5013 7.81516 16.8434 8.24393C16.9952 8.42911 17.1464 8.28444 17.1464 7.98615C17.1464 4.2629 13.6806 1.87339 12.0028 0C10.3215 1.87339 6.85566 4.2629 6.85566 7.98615C6.85566 12.1787 10.326 13.5649 10.7437 17.7451C10.5663 17.7471 10.3971 17.7512 10.2324 17.755C9.79199 14.1084 6.74452 11.5884 4.07507 11.3105C0.773711 10.9717 -0.685595 14.1269 0.306257 16.8004C1.65463 20.4366 5.8853 19.8723 5.23172 17.1143C4.76461 15.1499 5.39634 14.3806 6.49535 14.3806C7.86558 14.3806 8.99115 15.8655 9.24919 17.8175C8.43062 17.9062 8.06578 18.0914 8.06578 18.4742C8.06578 18.847 8.44346 19.0262 9.28009 19.1132C9.04916 21.5408 6.89578 22.413 4.76444 21.1758C4.48436 23.2247 5.42255 24.3893 6.85566 24.3893C8.55061 24.3893 10.1299 22.0563 10.277 19.1714C10.4328 19.1733 10.6017 19.1792 10.7753 19.1792C10.6953 21.5973 10.099 23.3456 8.67094 24.8991C9.63135 26.2651 11.6691 28 12.0028 28C12.3324 28 14.3656 26.2651 15.3313 24.8991C13.9031 23.3456 13.3021 21.5973 13.2179 19.1792C13.4004 19.1792 13.5648 19.1733 13.7206 19.1714C13.8718 22.0563 15.4509 24.3893 17.1464 24.3893C18.5745 24.3893 19.5128 23.2247 19.2375 21.1758C17.1016 22.413 14.9486 21.5408 14.7173 19.1132C15.5581 19.0262 15.9363 18.847 15.9363 18.4742C15.9363 18.0915 15.5669 17.9062 14.7527 17.8175C15.0109 15.8655 16.132 14.3806 17.5024 14.3806C18.6012 14.3806 19.2375 15.1499 18.7698 17.1143C18.1119 19.8723 22.3469 20.4368 23.6955 16.8004C24.6828 14.1269 23.2283 10.9717 19.927 11.3105Z" fill="#583D94"/>
</svg>
